<?xml version="1.0" encoding="UTF-8"?>
<svg xmlns="http://www.w3.org/2000/svg" xmlns:xlink="http://www.w3.org/1999/xlink" width="48px" height="38px" viewBox="0 0 48 38" version="1.1">
<g id="surface1">
<path style=" stroke:none;fill-rule:nonzero;fill:rgb(61.176473%,61.176473%,61.176473%);fill-opacity:1;" d="M 18.515625 2.371094 C 22.136719 2.371094 25.753906 2.371094 29.484375 2.371094 C 29.484375 3.289062 29.484375 4.203125 29.484375 5.148438 C 31.296875 5.148438 33.105469 5.148438 34.972656 5.148438 C 34.972656 6.0625 34.972656 6.980469 34.972656 7.925781 C 35.875 7.925781 36.78125 7.925781 37.714844 7.925781 C 37.714844 9.757812 37.714844 11.589844 37.714844 13.476562 C 38.621094 13.476562 39.523438 13.476562 40.457031 13.476562 C 40.457031 17.140625 40.457031 20.804688 40.457031 24.582031 C 39.550781 24.582031 38.648438 24.582031 37.714844 24.582031 C 37.714844 26.414062 37.714844 28.246094 37.714844 30.132812 C 36.808594 30.132812 35.902344 30.132812 34.972656 30.132812 C 34.972656 31.050781 34.972656 31.964844 34.972656 32.910156 C 33.160156 32.910156 31.351562 32.910156 29.484375 32.910156 C 29.484375 33.828125 29.484375 34.742188 29.484375 35.6875 C 25.863281 35.6875 22.246094 35.6875 18.515625 35.6875 C 18.515625 34.769531 18.515625 33.855469 18.515625 32.910156 C 16.703125 32.910156 14.894531 32.910156 13.027344 32.910156 C 13.027344 31.992188 13.027344 31.078125 13.027344 30.132812 C 12.125 30.132812 11.21875 30.132812 10.285156 30.132812 C 10.285156 28.300781 10.285156 26.46875 10.285156 24.582031 C 9.378906 24.582031 8.476562 24.582031 7.542969 24.582031 C 7.542969 20.917969 7.542969 17.253906 7.542969 13.476562 C 8.449219 13.476562 9.351562 13.476562 10.285156 13.476562 C 10.285156 11.644531 10.285156 9.8125 10.285156 7.925781 C 11.191406 7.925781 12.097656 7.925781 13.027344 7.925781 C 13.027344 7.007812 13.027344 6.089844 13.027344 5.148438 C 14.839844 5.148438 16.648438 5.148438 18.515625 5.148438 C 18.515625 4.230469 18.515625 3.316406 18.515625 2.371094 Z M 18.515625 2.371094 "/>
<path style=" stroke:none;fill-rule:nonzero;fill:rgb(94.509804%,25.490198%,20.784314%);fill-opacity:1;" d="M 18.515625 2.371094 C 22.136719 2.371094 25.753906 2.371094 29.484375 2.371094 C 29.484375 3.289062 29.484375 4.203125 29.484375 5.148438 C 31.296875 5.148438 33.105469 5.148438 34.972656 5.148438 C 34.972656 6.0625 34.972656 6.980469 34.972656 7.925781 C 35.875 7.925781 36.78125 7.925781 37.714844 7.925781 C 37.714844 9.757812 37.714844 11.589844 37.714844 13.476562 C 38.621094 13.476562 39.523438 13.476562 40.457031 13.476562 C 40.457031 17.140625 40.457031 20.804688 40.457031 24.582031 C 39.550781 24.582031 38.648438 24.582031 37.714844 24.582031 C 37.714844 26.414062 37.714844 28.246094 37.714844 30.132812 C 36.808594 30.132812 35.902344 30.132812 34.972656 30.132812 C 34.972656 28.300781 34.972656 26.46875 34.972656 24.582031 C 32.257812 24.582031 29.539062 24.582031 26.742188 24.582031 C 26.742188 22.75 26.742188 20.917969 26.742188 19.027344 C 24.933594 19.027344 23.121094 19.027344 21.257812 19.027344 C 21.257812 17.195312 21.257812 15.363281 21.257812 13.476562 C 22.164062 13.476562 23.066406 13.476562 24 13.476562 C 24 12.558594 24 11.644531 24 10.699219 C 23.09375 10.699219 22.191406 10.699219 21.257812 10.699219 C 21.257812 9.785156 21.257812 8.867188 21.257812 7.925781 C 18.542969 7.925781 15.828125 7.925781 13.027344 7.925781 C 13.027344 7.007812 13.027344 6.089844 13.027344 5.148438 C 14.839844 5.148438 16.648438 5.148438 18.515625 5.148438 C 18.515625 4.230469 18.515625 3.316406 18.515625 2.371094 Z M 18.515625 2.371094 "/>
<path style=" stroke:none;fill-rule:nonzero;fill:rgb(94.509804%,25.490198%,20.784314%);fill-opacity:1;" d="M 10.285156 7.925781 C 13.90625 7.925781 17.527344 7.925781 21.257812 7.925781 C 21.257812 8.839844 21.257812 9.757812 21.257812 10.699219 C 22.164062 10.699219 23.066406 10.699219 24 10.699219 C 24 11.617188 24 12.53125 24 13.476562 C 23.09375 13.476562 22.191406 13.476562 21.257812 13.476562 C 21.257812 15.308594 21.257812 17.140625 21.257812 19.027344 C 20.351562 19.027344 19.445312 19.027344 18.515625 19.027344 C 18.515625 19.945312 18.515625 20.859375 18.515625 21.804688 C 16.703125 21.804688 14.894531 21.804688 13.027344 21.804688 C 13.027344 20.890625 13.027344 19.972656 13.027344 19.027344 C 12.125 19.027344 11.21875 19.027344 10.285156 19.027344 C 10.285156 15.363281 10.285156 11.699219 10.285156 7.925781 Z M 10.285156 7.925781 "/>
<path style=" stroke:none;fill-rule:nonzero;fill:rgb(0.392157%,0%,0%);fill-opacity:1;" d="M 37.714844 13.476562 C 38.621094 13.476562 39.523438 13.476562 40.457031 13.476562 C 40.457031 17.140625 40.457031 20.804688 40.457031 24.582031 C 39.550781 24.582031 38.648438 24.582031 37.714844 24.582031 C 37.714844 26.414062 37.714844 28.246094 37.714844 30.132812 C 36.808594 30.132812 35.902344 30.132812 34.972656 30.132812 C 34.972656 28.300781 34.972656 26.46875 34.972656 24.582031 C 32.257812 24.582031 29.539062 24.582031 26.742188 24.582031 C 26.742188 22.75 26.742188 20.917969 26.742188 19.027344 C 27.648438 19.027344 28.554688 19.027344 29.484375 19.027344 C 29.484375 19.945312 29.484375 20.859375 29.484375 21.804688 C 31.296875 21.804688 33.105469 21.804688 34.972656 21.804688 C 34.972656 20.890625 34.972656 19.972656 34.972656 19.027344 C 35.875 19.027344 36.78125 19.027344 37.714844 19.027344 C 37.714844 17.195312 37.714844 15.363281 37.714844 13.476562 Z M 37.714844 13.476562 "/>
<path style=" stroke:none;fill-rule:nonzero;fill:rgb(0.392157%,0%,0%);fill-opacity:1;" d="M 7.542969 13.476562 C 8.449219 13.476562 9.351562 13.476562 10.285156 13.476562 C 10.285156 15.308594 10.285156 17.140625 10.285156 19.027344 C 11.191406 19.027344 12.097656 19.027344 13.027344 19.027344 C 13.027344 19.945312 13.027344 20.859375 13.027344 21.804688 C 14.839844 21.804688 16.648438 21.804688 18.515625 21.804688 C 18.515625 20.890625 18.515625 19.972656 18.515625 19.027344 C 19.417969 19.027344 20.324219 19.027344 21.257812 19.027344 C 21.257812 20.859375 21.257812 22.695312 21.257812 24.582031 C 18.542969 24.582031 15.828125 24.582031 13.027344 24.582031 C 13.027344 26.414062 13.027344 28.246094 13.027344 30.132812 C 12.125 30.132812 11.21875 30.132812 10.285156 30.132812 C 10.285156 28.300781 10.285156 26.46875 10.285156 24.582031 C 9.378906 24.582031 8.476562 24.582031 7.542969 24.582031 C 7.542969 20.917969 7.542969 17.253906 7.542969 13.476562 Z M 7.542969 13.476562 "/>
<path style=" stroke:none;fill-rule:nonzero;fill:rgb(99.215686%,99.215686%,99.215686%);fill-opacity:1;" d="M 13.027344 24.582031 C 15.742188 24.582031 18.460938 24.582031 21.257812 24.582031 C 21.257812 25.496094 21.257812 26.414062 21.257812 27.359375 C 22.164062 27.359375 23.066406 27.359375 24 27.359375 C 24 28.273438 24 29.191406 24 30.132812 C 20.378906 30.132812 16.757812 30.132812 13.027344 30.132812 C 13.027344 28.300781 13.027344 26.46875 13.027344 24.582031 Z M 13.027344 24.582031 "/>
<path style=" stroke:none;fill-rule:nonzero;fill:rgb(99.607843%,98.823529%,98.823529%);fill-opacity:1;" d="M 18.515625 7.925781 C 19.417969 7.925781 20.324219 7.925781 21.257812 7.925781 C 21.257812 8.839844 21.257812 9.757812 21.257812 10.699219 C 22.164062 10.699219 23.066406 10.699219 24 10.699219 C 24 11.617188 24 12.53125 24 13.476562 C 23.09375 13.476562 22.191406 13.476562 21.257812 13.476562 C 21.257812 14.390625 21.257812 15.308594 21.257812 16.253906 C 20.351562 16.253906 19.445312 16.253906 18.515625 16.253906 C 18.515625 15.335938 18.515625 14.421875 18.515625 13.476562 C 17.609375 13.476562 16.703125 13.476562 15.769531 13.476562 C 15.769531 12.558594 15.769531 11.644531 15.769531 10.699219 C 16.675781 10.699219 17.582031 10.699219 18.515625 10.699219 C 18.515625 9.785156 18.515625 8.867188 18.515625 7.925781 Z M 18.515625 7.925781 "/>
<path style=" stroke:none;fill-rule:nonzero;fill:rgb(0%,0%,0%);fill-opacity:1;" d="M 18.515625 32.910156 C 22.136719 32.910156 25.753906 32.910156 29.484375 32.910156 C 29.484375 33.828125 29.484375 34.742188 29.484375 35.6875 C 25.863281 35.6875 22.246094 35.6875 18.515625 35.6875 C 18.515625 34.769531 18.515625 33.855469 18.515625 32.910156 Z M 18.515625 32.910156 "/>
<path style=" stroke:none;fill-rule:nonzero;fill:rgb(0.392157%,0%,0%);fill-opacity:1;" d="M 26.742188 19.027344 C 27.648438 19.027344 28.554688 19.027344 29.484375 19.027344 C 29.484375 19.945312 29.484375 20.859375 29.484375 21.804688 C 31.296875 21.804688 33.105469 21.804688 34.972656 21.804688 C 34.972656 22.722656 34.972656 23.636719 34.972656 24.582031 C 32.257812 24.582031 29.539062 24.582031 26.742188 24.582031 C 26.742188 22.75 26.742188 20.917969 26.742188 19.027344 Z M 26.742188 19.027344 "/>
<path style=" stroke:none;fill-rule:nonzero;fill:rgb(0%,0%,0%);fill-opacity:1;" d="M 18.515625 19.027344 C 19.417969 19.027344 20.324219 19.027344 21.257812 19.027344 C 21.257812 20.859375 21.257812 22.695312 21.257812 24.582031 C 18.542969 24.582031 15.828125 24.582031 13.027344 24.582031 C 13.027344 23.664062 13.027344 22.75 13.027344 21.804688 C 14.839844 21.804688 16.648438 21.804688 18.515625 21.804688 C 18.515625 20.890625 18.515625 19.972656 18.515625 19.027344 Z M 18.515625 19.027344 "/>
<path style=" stroke:none;fill-rule:nonzero;fill:rgb(61.176473%,61.176473%,61.176473%);fill-opacity:1;" d="M 21.257812 19.027344 C 23.066406 19.027344 24.878906 19.027344 26.742188 19.027344 C 26.742188 20.859375 26.742188 22.695312 26.742188 24.582031 C 24.933594 24.582031 23.121094 24.582031 21.257812 24.582031 C 21.257812 22.75 21.257812 20.917969 21.257812 19.027344 Z M 21.257812 19.027344 "/>
<path style=" stroke:none;fill-rule:nonzero;fill:rgb(0.392157%,0%,0%);fill-opacity:1;" d="M 18.515625 2.371094 C 22.136719 2.371094 25.753906 2.371094 29.484375 2.371094 C 29.484375 3.289062 29.484375 4.203125 29.484375 5.148438 C 25.863281 5.148438 22.246094 5.148438 18.515625 5.148438 C 18.515625 4.230469 18.515625 3.316406 18.515625 2.371094 Z M 18.515625 2.371094 "/>
<path style=" stroke:none;fill-rule:nonzero;fill:rgb(0%,0%,0%);fill-opacity:1;" d="M 13.027344 30.132812 C 14.839844 30.132812 16.648438 30.132812 18.515625 30.132812 C 18.515625 31.050781 18.515625 31.964844 18.515625 32.910156 C 16.703125 32.910156 14.894531 32.910156 13.027344 32.910156 C 13.027344 31.992188 13.027344 31.078125 13.027344 30.132812 Z M 13.027344 30.132812 "/>
<path style=" stroke:none;fill-rule:nonzero;fill:rgb(0%,0%,0%);fill-opacity:1;" d="M 29.484375 30.132812 C 31.296875 30.132812 33.105469 30.132812 34.972656 30.132812 C 34.972656 31.050781 34.972656 31.964844 34.972656 32.910156 C 33.160156 32.910156 31.351562 32.910156 29.484375 32.910156 C 29.484375 31.992188 29.484375 31.078125 29.484375 30.132812 Z M 29.484375 30.132812 "/>
<path style=" stroke:none;fill-rule:nonzero;fill:rgb(0%,0%,0%);fill-opacity:1;" d="M 10.285156 24.582031 C 11.191406 24.582031 12.097656 24.582031 13.027344 24.582031 C 13.027344 26.414062 13.027344 28.246094 13.027344 30.132812 C 12.125 30.132812 11.21875 30.132812 10.285156 30.132812 C 10.285156 28.300781 10.285156 26.46875 10.285156 24.582031 Z M 10.285156 24.582031 "/>
<path style=" stroke:none;fill-rule:nonzero;fill:rgb(0%,0%,0%);fill-opacity:1;" d="M 34.972656 24.582031 C 35.875 24.582031 36.78125 24.582031 37.714844 24.582031 C 37.714844 26.414062 37.714844 28.246094 37.714844 30.132812 C 36.808594 30.132812 35.902344 30.132812 34.972656 30.132812 C 34.972656 28.300781 34.972656 26.46875 34.972656 24.582031 Z M 34.972656 24.582031 "/>
<path style=" stroke:none;fill-rule:nonzero;fill:rgb(0%,0%,0%);fill-opacity:1;" d="M 21.257812 24.582031 C 23.066406 24.582031 24.878906 24.582031 26.742188 24.582031 C 26.742188 25.496094 26.742188 26.414062 26.742188 27.359375 C 24.933594 27.359375 23.121094 27.359375 21.257812 27.359375 C 21.257812 26.441406 21.257812 25.523438 21.257812 24.582031 Z M 21.257812 24.582031 "/>
<path style=" stroke:none;fill-rule:nonzero;fill:rgb(0.784314%,0%,0%);fill-opacity:1;" d="M 21.257812 16.253906 C 23.066406 16.253906 24.878906 16.253906 26.742188 16.253906 C 26.742188 17.167969 26.742188 18.085938 26.742188 19.027344 C 24.933594 19.027344 23.121094 19.027344 21.257812 19.027344 C 21.257812 18.113281 21.257812 17.195312 21.257812 16.253906 Z M 21.257812 16.253906 "/>
<path style=" stroke:none;fill-rule:nonzero;fill:rgb(0.392157%,0%,0%);fill-opacity:1;" d="M 34.972656 7.925781 C 35.875 7.925781 36.78125 7.925781 37.714844 7.925781 C 37.714844 9.757812 37.714844 11.589844 37.714844 13.476562 C 36.808594 13.476562 35.902344 13.476562 34.972656 13.476562 C 34.972656 11.644531 34.972656 9.8125 34.972656 7.925781 Z M 34.972656 7.925781 "/>
<path style=" stroke:none;fill-rule:nonzero;fill:rgb(0.392157%,0%,0%);fill-opacity:1;" d="M 10.285156 7.925781 C 11.191406 7.925781 12.097656 7.925781 13.027344 7.925781 C 13.027344 9.757812 13.027344 11.589844 13.027344 13.476562 C 12.125 13.476562 11.21875 13.476562 10.285156 13.476562 C 10.285156 11.644531 10.285156 9.8125 10.285156 7.925781 Z M 10.285156 7.925781 "/>
<path style=" stroke:none;fill-rule:nonzero;fill:rgb(0.784314%,0%,0%);fill-opacity:1;" d="M 29.484375 5.148438 C 31.296875 5.148438 33.105469 5.148438 34.972656 5.148438 C 34.972656 6.0625 34.972656 6.980469 34.972656 7.925781 C 33.160156 7.925781 31.351562 7.925781 29.484375 7.925781 C 29.484375 7.007812 29.484375 6.089844 29.484375 5.148438 Z M 29.484375 5.148438 "/>
<path style=" stroke:none;fill-rule:nonzero;fill:rgb(0.784314%,0%,0%);fill-opacity:1;" d="M 13.027344 5.148438 C 14.839844 5.148438 16.648438 5.148438 18.515625 5.148438 C 18.515625 6.0625 18.515625 6.980469 18.515625 7.925781 C 16.703125 7.925781 14.894531 7.925781 13.027344 7.925781 C 13.027344 7.007812 13.027344 6.089844 13.027344 5.148438 Z M 13.027344 5.148438 "/>
<path style=" stroke:none;fill-rule:nonzero;fill:rgb(61.176473%,61.176473%,61.176473%);fill-opacity:1;" d="M 13.027344 27.359375 C 13.933594 27.359375 14.839844 27.359375 15.769531 27.359375 C 15.769531 28.273438 15.769531 29.191406 15.769531 30.132812 C 14.867188 30.132812 13.960938 30.132812 13.027344 30.132812 C 13.027344 29.21875 13.027344 28.300781 13.027344 27.359375 Z M 13.027344 27.359375 "/>
<path style=" stroke:none;fill-rule:nonzero;fill:rgb(61.176473%,61.176473%,61.176473%);fill-opacity:1;" d="M 34.972656 21.804688 C 35.875 21.804688 36.78125 21.804688 37.714844 21.804688 C 37.714844 22.722656 37.714844 23.636719 37.714844 24.582031 C 36.808594 24.582031 35.902344 24.582031 34.972656 24.582031 C 34.972656 23.664062 34.972656 22.75 34.972656 21.804688 Z M 34.972656 21.804688 "/>
<path style=" stroke:none;fill-rule:nonzero;fill:rgb(99.215686%,99.215686%,99.215686%);fill-opacity:1;" d="M 10.285156 21.804688 C 11.191406 21.804688 12.097656 21.804688 13.027344 21.804688 C 13.027344 22.722656 13.027344 23.636719 13.027344 24.582031 C 12.125 24.582031 11.21875 24.582031 10.285156 24.582031 C 10.285156 23.664062 10.285156 22.75 10.285156 21.804688 Z M 10.285156 21.804688 "/>
<path style=" stroke:none;fill-rule:nonzero;fill:rgb(99.215686%,99.215686%,99.215686%);fill-opacity:1;" d="M 21.257812 19.027344 C 22.164062 19.027344 23.066406 19.027344 24 19.027344 C 24 19.945312 24 20.859375 24 21.804688 C 23.09375 21.804688 22.191406 21.804688 21.257812 21.804688 C 21.257812 20.890625 21.257812 19.972656 21.257812 19.027344 Z M 21.257812 19.027344 "/>
<path style=" stroke:none;fill-rule:nonzero;fill:rgb(13.333334%,0%,0%);fill-opacity:1;" d="M 13.027344 21.804688 C 14.839844 21.804688 16.648438 21.804688 18.515625 21.804688 C 18.515625 21.84375 18.515625 21.882812 18.515625 21.921875 C 18.445312 21.921875 18.378906 21.921875 18.3125 21.921875 C 17.679688 21.929688 17.050781 21.933594 16.417969 21.941406 C 16.09375 21.945312 15.769531 21.945312 15.445312 21.949219 C 15.132812 21.953125 14.820312 21.957031 14.507812 21.957031 C 14.390625 21.960938 14.269531 21.960938 14.148438 21.960938 C 13.984375 21.964844 13.816406 21.964844 13.648438 21.96875 C 13.597656 21.96875 13.550781 21.96875 13.496094 21.96875 C 13.253906 21.964844 13.253906 21.964844 13.027344 22.035156 C 13.027344 21.960938 13.027344 21.882812 13.027344 21.804688 Z M 13.027344 21.804688 "/>
</g>
</svg>
